# xmcd
#
# Track frame offsets:
#	187
#	14255
#	26645
#	37217
#	50850
#	69465
#	82922
#	96600
#	110627
#	130427
#
# Disc length: 1933 seconds
#
# Revision: 3
# Processed by: cddbd v1.4PL0 Copyright (c) Steve Scherf et al.
# Submitted via: audiograbber 1.80.04
#
DISCID=91078b0a
DTITLE=Randy Travis - Storms of Life
DYEAR=1986
DGENRE=Country
TTITLE0=On the Other Hand
TTITLE1=The Storms of Life
TTITLE2=My Heart Cracked (But It Did Not Break)
TTITLE3=Diggin' Up Bones
TTITLE4=No Place Like Home
TTITLE5=1982
TTITLE6=Send My Body
TTITLE7=Messin' with My Mind
TTITLE8=Reasons I Cheat
TTITLE9=There'll Always Be a Honky Tonk Somewhere
EXTD=
EXTT0=
EXTT1=
EXTT2=
EXTT3=
EXTT4=
EXTT5=
EXTT6=
EXTT7=
EXTT8=
EXTT9=
PLAYORDER=
